<svg width="8" height="8" viewBox="0 0 8 8" fill="none" xmlns="http://www.w3.org/2000/svg">
<g clip-path="url(#clip0_72_9)">
<path d="M4.37428 6.52585C4.38571 6.55435 4.40559 6.57866 4.43123 6.59553C4.45688 6.6124 4.48708 6.62102 4.51777 6.62024C4.54846 6.61945 4.57818 6.60929 4.60293 6.59113C4.62768 6.57297 4.64629 6.54767 4.65625 6.51863L6.61226 0.801039C6.62189 0.774375 6.62373 0.74552 6.61756 0.717849C6.61139 0.690179 6.59747 0.664838 6.57742 0.644791C6.55738 0.624745 6.53204 0.610822 6.50437 0.604652C6.4767 0.598482 6.44784 0.60032 6.42118 0.609951L0.703583 2.56597C0.674543 2.57593 0.649244 2.59453 0.631082 2.61928C0.61292 2.64404 0.602764 2.67375 0.601978 2.70444C0.601192 2.73513 0.609813 2.76533 0.626684 2.79098C0.643555 2.81663 0.667868 2.8365 0.696361 2.84794L3.0827 3.80488C3.15814 3.83508 3.22668 3.88025 3.28419 3.93766C3.3417 3.99507 3.38699 4.06353 3.41733 4.13891L4.37428 6.52585Z" stroke="#18548B" stroke-width="0.601852" stroke-linecap="round" stroke-linejoin="round"/>
<path d="M6.57643 0.645996L3.2843 3.93782" stroke="#18548B" stroke-width="0.601852" stroke-linecap="round" stroke-linejoin="round"/>
</g>
<defs>
<clipPath id="clip0_72_9">
<rect width="7.22222" height="7.22222" fill="white"/>
</clipPath>
</defs>
</svg>
