<svg width="94" height="103" viewBox="0 0 94 103" fill="none" xmlns="http://www.w3.org/2000/svg">
<path d="M29.225 101C44.261 101 56.45 88.811 56.45 73.7751C56.45 58.7391 44.261 46.55 29.225 46.55C14.189 46.55 2 58.7391 2 73.7751C2 88.811 14.189 101 29.225 101Z" stroke="black" stroke-width="4" stroke-linecap="round" stroke-linejoin="round"/>
<path d="M63.875 101C78.9109 101 91.1 88.811 91.1 73.7751C91.1 58.7391 78.9109 46.55 63.875 46.55C48.839 46.55 36.65 58.7391 36.65 73.7751C36.65 88.811 48.839 101 63.875 101Z" stroke="black" stroke-width="4" stroke-linecap="round" stroke-linejoin="round"/>
<path d="M46.55 36.65C46.55 36.65 66.35 27.4777 66.35 12.5881C66.35 6.7421 62.1821 2 56.45 2C51.7623 2 48.6339 4.0394 46.55 8.11325C44.466 4.0394 41.3376 2 36.65 2C30.9179 2 26.75 6.7421 26.75 12.5881C26.75 27.4777 46.55 36.65 46.55 36.65Z" stroke="black" stroke-width="4" stroke-linejoin="round"/>
</svg>
